<?xml version="1.0" standalone="no"?>
<!DOCTYPE svg PUBLIC "-//W3C//DTD SVG 20010904//EN"
 "http://www.w3.org/TR/2001/REC-SVG-20010904/DTD/svg10.dtd">
<svg version="1.0" xmlns="http://www.w3.org/2000/svg"
 width="260.000000pt" height="260.000000pt" viewBox="0 0 260.000000 260.000000"
 preserveAspectRatio="xMidYMid meet">
<metadata>
Created by potrace 1.14, written by Peter Selinger 2001-2017
</metadata>
<g transform="translate(0.000000,260.000000) scale(0.100000,-0.100000)"
fill="#000000" stroke="none">
<path d="M0 1300 l0 -1300 1300 0 1300 0 0 1300 0 1300 -1300 0 -1300 0 0
-1300z m1400 780 c84 -43 217 -255 320 -510 39 -96 80 -200 92 -230 12 -30 80
-172 151 -315 120 -241 129 -263 124 -305 -11 -95 -117 -142 -198 -87 -27 18
-53 60 -125 200 l-91 178 -334 3 c-243 3 -363 8 -439 19 -58 9 -112 17 -121
17 -10 0 -45 -49 -93 -130 -43 -71 -91 -140 -107 -154 -106 -89 -242 12 -196
146 29 85 304 522 456 723 76 101 385 430 425 452 32 19 92 15 136 -7z"/>
<path d="M1212 1666 c-82 -85 -231 -273 -263 -332 -24 -46 -11 -49 303 -53
l291 -3 -6 31 c-11 53 -133 336 -171 396 -20 30 -42 55 -49 55 -8 0 -55 -42
-105 -94z"/>
</g>
</svg>
